<?xml version="1.0" standalone="no"?>
<!DOCTYPE svg PUBLIC "-//W3C//DTD SVG 20010904//EN"
 "http://www.w3.org/TR/2001/REC-SVG-20010904/DTD/svg10.dtd">
<svg version="1.0" xmlns="http://www.w3.org/2000/svg"
 width="183.000000pt" height="183.000000pt" viewBox="0 0 183.000000 183.000000"
 preserveAspectRatio="xMidYMid meet">
<metadata>
Created by potrace 1.11, written by Peter Selinger 2001-2013
</metadata>
<g transform="translate(0.000000,183.000000) scale(0.100000,-0.100000)"
fill="#000000" stroke="none">
<path d="M517 1504 c-1 -1 -42 -4 -92 -7 -165 -9 -251 -52 -298 -148 -18 -38
-12 -54 9 -24 31 43 68 77 105 96 50 25 188 47 197 32 4 -6 7 -187 7 -402 l0
-390 -24 -25 c-14 -14 -35 -26 -48 -26 -13 0 -23 -4 -23 -10 0 -14 470 -10
543 5 l57 11 0 -98 c0 -94 -1 -100 -26 -123 -15 -14 -38 -25 -52 -25 -14 0
-22 -3 -18 -7 3 -4 122 -6 264 -6 300 2 346 11 451 88 203 150 229 476 52 663
-84 89 -190 129 -361 137 -30 1 -56 7 -58 14 -7 21 -77 108 -107 133 -82 69
-200 104 -358 108 -56 1 -128 3 -160 4 -32 0 -59 0 -60 0z m414 -76 c68 -31
126 -82 157 -137 l23 -41 -63 -1 c-164 -2 -277 -23 -330 -60 -54 -39 -108
-129 -78 -129 6 0 10 5 10 12 0 7 20 31 45 55 45 42 90 61 165 69 19 3 47 6
63 9 l27 5 -2 -272 -3 -271 -40 -15 c-45 -16 -361 -27 -370 -12 -4 7 -7 355
-5 739 l0 83 173 -4 c160 -3 176 -6 228 -30z m202 -244 c19 -32 14 -240 -7
-299 -19 -52 -74 -145 -86 -145 -11 0 -8 454 3 461 20 14 79 3 90 -17z m304
-14 c76 -38 144 -110 174 -188 19 -48 23 -77 24 -177 0 -156 -22 -221 -104
-305 -85 -87 -135 -102 -336 -104 l-160 -1 -1 124 -2 125 36 30 c96 83 148
162 170 262 10 46 9 166 -3 231 l-7 41 73 -4 c56 -3 89 -12 136 -34z"/>
</g>
</svg>
